<svg id="Ebene_1" data-name="Ebene 1" xmlns="http://www.w3.org/2000/svg" viewBox="0 0 318.65 112.45"><defs><style>.cls-1{fill:#333;stroke:#333;stroke-width:0.75px;}.cls-1,.cls-2,.cls-3{stroke-miterlimit:10;}.cls-2{fill:#0f458f;stroke:#114491;}.cls-3,.cls-4{fill:#99c;}.cls-3{stroke:#99c;stroke-width:0.25px;}.cls-5{fill:#7784c0;}.cls-6{fill:#34669a;}.cls-7{fill:#114492;}</style></defs><path class="cls-1" d="M30.31,62.71l9.31-23.33h3.25l9.34,23.33H49.34l-2.41-6.33H35.49L33,62.71Zm6-8.57h9.8L41.23,41.62Z" transform="translate(-29.74 -22.13)"/><path class="cls-1" d="M58.27,55.61c0,2.77.53,5.28,3.85,5.28,3.64,0,4.76-3.14,4.76-6.22V45.29H69.4V58.62a40,40,0,0,0,.17,4.09H67.23l-.07-3a6,6,0,0,1-5.63,3.39c-4.45,0-5.81-3-5.81-7V45.29h2.55Z" transform="translate(-29.74 -22.13)"/><path class="cls-1" d="M75.94,67.26a10.82,10.82,0,0,0,5,1.26c4.2,0,5.77-2.87,5.77-6.65V59.63a6.1,6.1,0,0,1-5.38,3.08c-5.18,0-7-4.47-7-8.78,0-4.62,2-9,7.11-9a5.65,5.65,0,0,1,5.45,3.29V45.29h2.42V61.84c0,5.42-2.45,8.82-8.15,8.82a18.24,18.24,0,0,1-5.43-.91Zm6-6.72c3.74,0,4.93-3.63,4.93-6.57s-1.29-6.86-4.89-6.86c-3.92,0-4.87,3.64-4.87,6.86a9.37,9.37,0,0,0,1,4.41A4.18,4.18,0,0,0,81.89,60.54Z" transform="translate(-29.74 -22.13)"/><path class="cls-1" d="M97.74,55.61c0,2.77.53,5.28,3.85,5.28,3.64,0,4.76-3.14,4.76-6.22V45.29h2.52V58.62a40,40,0,0,0,.18,4.09H106.7l-.07-3A6,6,0,0,1,101,63.1c-4.45,0-5.81-3-5.81-7V45.29h2.55Z" transform="translate(-29.74 -22.13)"/><path class="cls-1" d="M114.09,59.91A8.64,8.64,0,0,0,118.36,61c2,0,3.32-1,3.32-2.9,0-4.24-7.52-3-7.52-8.33,0-3.5,2.9-4.83,5.63-4.83a11.27,11.27,0,0,1,3.95.73l-.35,2.21a8.28,8.28,0,0,0-3.56-.88c-1.37,0-3.12.53-3.12,2.63,0,3.5,7.59,2.41,7.59,8.26,0,3.35-2.83,5.21-5.91,5.21a11.58,11.58,0,0,1-4.62-.81Z" transform="translate(-29.74 -22.13)"/><path class="cls-1" d="M137.53,62.57a7,7,0,0,1-2.83.53c-3.57,0-4-2.59-4-5.77v-10h-3.28v-2h3.28V41.37l2.52-.87v4.79h4v2h-4V58c0,1.54.42,2.9,2.24,2.9a4.84,4.84,0,0,0,2-.45Z" transform="translate(-29.74 -22.13)"/><path class="cls-1" d="M140.51,53V50.71H149V53Z" transform="translate(-29.74 -22.13)"/><path class="cls-1" d="M157.86,62.71l-6.68-23.33H154L159.65,60l5.81-20.57h3.22L174.45,60l5.63-20.57h2.63l-6.65,23.33h-3.29L167,42.11l-5.81,20.6Z" transform="translate(-29.74 -22.13)"/><path class="cls-1" d="M186.91,41.41v-3h2.56v3Zm0,21.3V45.29h2.56V62.71Z" transform="translate(-29.74 -22.13)"/><path class="cls-1" d="M195.41,62.71V37.49H198V62.71Z" transform="translate(-29.74 -22.13)"/><path class="cls-1" d="M204,62.71V37.49h2.56V48.23a5.6,5.6,0,0,1,5.39-3.29c4.26,0,5.8,2.94,5.8,7V62.71h-2.51V52.36c0-2.77-.56-5.25-3.92-5.25-3.61,0-4.76,3.11-4.76,6.19v9.41Z" transform="translate(-29.74 -22.13)"/><path class="cls-1" d="M225.23,54.32c0,3.36,1.78,6.71,6.16,6.71a9.27,9.27,0,0,0,4.79-1.32l.11,2.27a11.51,11.51,0,0,1-4.9,1.12c-6,0-8.82-4-8.82-9.17,0-4.44,2.55-9,7.77-9,5.42,0,7,4.34,7,9v.42Zm9.59-1.89c-.18-2.38-1-5.46-4.45-5.46s-5,3-5.14,5.46Z" transform="translate(-29.74 -22.13)"/><path class="cls-1" d="M241.75,62.71V37.49h2.55V62.71Z" transform="translate(-29.74 -22.13)"/><path class="cls-1" d="M250.25,62.71V49.38a40,40,0,0,0-.17-4.09h2.34l.11,3a5.57,5.57,0,0,1,5.21-3.36,5,5,0,0,1,5.07,3.64,5.81,5.81,0,0,1,5.29-3.64c3.53,0,5.42,2.55,5.42,5.91V62.71H271V51.31c0-2.35-.84-4.2-3.46-4.2-3.18,0-4.34,3.15-4.34,6.19v9.41h-2.55V51.31c0-2.35-.81-4.2-3.43-4.2-3.22,0-4.37,3.15-4.37,6.19v9.41Z" transform="translate(-29.74 -22.13)"/><path class="cls-1" d="M30.46,92.79a10,10,0,0,0,5.39,1.36c2.66,0,4.76-1.15,4.76-4.23,0-2.45-1.85-3.6-4-4.72l-1.89-1c-2.24-1.22-4-2.66-4-5.74,0-4.23,3.75-6,7.53-6a11.31,11.31,0,0,1,4.51.84l-.32,2.48a8.59,8.59,0,0,0-4.16-1c-2.45,0-4.72.84-4.72,3.64,0,1.92,1.4,3,3.25,4l1.89,1c2.62,1.4,4.83,2.84,4.83,6.4,0,4.38-3.6,6.72-7.59,6.72a13.91,13.91,0,0,1-5.74-1.08Z" transform="translate(-29.74 -22.13)"/><path class="cls-1" d="M60.62,95.8a13.41,13.41,0,0,1-4.51.66c-5.35,0-8.33-4.09-8.33-9.17s3.26-9,8.58-9a13.48,13.48,0,0,1,4.26.74l-.21,2.27a8.77,8.77,0,0,0-3.63-.87c-4.2,0-6.27,2.94-6.27,6.85,0,3.68,2.07,7,6.09,7a9.56,9.56,0,0,0,3.85-.81Z" transform="translate(-29.74 -22.13)"/><path class="cls-1" d="M65.21,96.08V70.85h2.55V81.59a5.62,5.62,0,0,1,5.39-3.29c4.27,0,5.81,2.94,5.81,7V96.08H76.44V85.72c0-2.76-.56-5.25-3.92-5.25-3.6,0-4.76,3.12-4.76,6.19v9.42Z" transform="translate(-29.74 -22.13)"/><path class="cls-1" d="M86.48,87.68c0,3.36,1.79,6.72,6.16,6.72a9.18,9.18,0,0,0,4.79-1.33l.11,2.27a11.36,11.36,0,0,1-4.9,1.12c-6,0-8.82-3.95-8.82-9.17,0-4.44,2.56-9,7.77-9,5.42,0,7,4.34,7,9v.42Zm9.59-1.89c-.18-2.38-1-5.46-4.45-5.46s-5,3-5.14,5.46Z" transform="translate(-29.74 -22.13)"/><path class="cls-1" d="M104.54,87.68c0,3.36,1.78,6.72,6.15,6.72a9.24,9.24,0,0,0,4.8-1.33l.1,2.27a11.3,11.3,0,0,1-4.9,1.12c-6,0-8.81-3.95-8.81-9.17,0-4.44,2.55-9,7.76-9,5.43,0,7,4.34,7,9v.42Zm9.58-1.89c-.17-2.38-1.05-5.46-4.44-5.46s-5,3-5.14,5.46Z" transform="translate(-29.74 -22.13)"/><path class="cls-1" d="M121.05,96.08V82.75a40.15,40.15,0,0,0-.17-4.1h2.34l.14,3.29c.67-1.78,2.48-3.64,4.62-3.64a5.28,5.28,0,0,1,1.47.14L129.31,81a4.9,4.9,0,0,0-1.4-.21c-3.53,0-4.3,3.92-4.3,6.65v8.64Z" transform="translate(-29.74 -22.13)"/><path class="cls-2" d="M144.27,96.08V72h2.85V96.08Z" transform="translate(-29.74 -22.13)"/><path class="cls-2" d="M153.69,96.08V82.33c0-1.41,0-2.82-.18-4.22h2.42l.1,3.1a6.23,6.23,0,0,1,5.81-3.46c4.62,0,6,3,6,7.18V96.08h-2.6V85.43c0-2.85-.57-5.45-4-5.45-3.75,0-4.91,3.25-4.91,6.43v9.67Z" transform="translate(-29.74 -22.13)"/><path class="cls-2" d="M173.24,93.19a9,9,0,0,0,4.41,1.12c2,0,3.42-1,3.42-3,0-4.36-7.75-3.1-7.75-8.58,0-3.61,3-5,5.81-5a11.46,11.46,0,0,1,4.07.75l-.36,2.28a8.48,8.48,0,0,0-3.68-.91c-1.4,0-3.21.55-3.21,2.71,0,3.61,7.83,2.49,7.83,8.52,0,3.46-2.92,5.37-6.1,5.37a11.9,11.9,0,0,1-4.76-.83Z" transform="translate(-29.74 -22.13)"/><path class="cls-2" d="M197.42,95.93a7.31,7.31,0,0,1-2.92.54c-3.68,0-4.15-2.67-4.15-6V80.16H187v-2h3.4v-4l2.6-.9v5H197v2H193v11c0,1.58.43,3,2.3,3a5,5,0,0,0,2-.47Z" transform="translate(-29.74 -22.13)"/><path class="cls-2" d="M201.71,74.1V71h2.64V74.1Zm0,22v-18h2.64v18Z" transform="translate(-29.74 -22.13)"/><path class="cls-2" d="M218.92,95.93a7.31,7.31,0,0,1-2.92.54c-3.68,0-4.15-2.67-4.15-6V80.16h-3.39v-2h3.39v-4l2.6-.9v5h4.08v2h-4.08v11c0,1.58.43,3,2.31,3a5,5,0,0,0,2-.47Z" transform="translate(-29.74 -22.13)"/><path class="cls-2" d="M225.78,88.75c0,2.85.54,5.45,4,5.45,3.75,0,4.9-3.25,4.9-6.42V78.11h2.6V91.85c0,1.41,0,2.82.18,4.23H235L234.94,93a6.2,6.2,0,0,1-5.81,3.5c-4.58,0-6-3.06-6-7.25V78.11h2.64Z" transform="translate(-29.74 -22.13)"/><path class="cls-2" d="M251.87,95.93a7.36,7.36,0,0,1-2.93.54c-3.68,0-4.15-2.67-4.15-6V80.16H241.4v-2h3.39v-4l2.6-.9v5h4.08v2h-4.08v11c0,1.58.43,3,2.31,3a5,5,0,0,0,2-.47Z" transform="translate(-29.74 -22.13)"/><path class="cls-3" d="M30,127.19V105.85h5.12c6.27,0,10.16,3.42,10.16,10.36,0,7.56-4.74,11-11.25,11Zm2.33-2.08h1.64c5.54,0,8.86-2.66,8.86-8.9,0-5.37-2.82-8.28-7.8-8.28h-2.7Z" transform="translate(-29.74 -22.13)"/><path class="cls-3" d="M48.76,107.7v-2.78h2.15v2.78Zm0,19.49V111.25h2.15v15.94Z" transform="translate(-29.74 -22.13)"/><path class="cls-3" d="M55.65,131.35a8.64,8.64,0,0,0,4.24,1.15c3.53,0,4.86-2.62,4.86-6.08v-2a5.1,5.1,0,0,1-4.54,2.82c-4.35,0-5.91-4.1-5.91-8,0-4.23,1.64-8.23,6-8.23a4.72,4.72,0,0,1,4.59,3v-2.69h2v15.14c0,5-2.06,8.06-6.85,8.06a14.27,14.27,0,0,1-4.57-.83Zm5-6.14c3.15,0,4.15-3.33,4.15-6s-1.08-6.27-4.12-6.27c-3.29,0-4.09,3.33-4.09,6.27a9.14,9.14,0,0,0,.8,4A3.49,3.49,0,0,0,60.65,125.21Z" transform="translate(-29.74 -22.13)"/><path class="cls-3" d="M71.17,107.7v-2.78h2.14v2.78Zm0,19.49V111.25h2.14v15.94Z" transform="translate(-29.74 -22.13)"/><path class="cls-3" d="M84.47,127.06a5.63,5.63,0,0,1-2.38.48c-3,0-3.39-2.37-3.39-5.28v-9.18H75.93v-1.83H78.7v-3.58l2.12-.8v4.38h3.33v1.83H80.82v9.79c0,1.41.35,2.66,1.88,2.66a3.77,3.77,0,0,0,1.65-.42Z" transform="translate(-29.74 -22.13)"/><path class="cls-3" d="M95.54,127.19l-.09-2.56a4.72,4.72,0,0,1-4.56,2.91c-2.62,0-4.8-1.5-4.8-4.73,0-4.1,3.3-5.32,7.59-5.32h1.65v-.76c0-2.44-.85-3.94-3.29-3.94a7,7,0,0,0-4.15,1.34l-.18-2.08a10.29,10.29,0,0,1,4.41-1.12c3.68,0,5.33,2,5.33,6v6.91a25.14,25.14,0,0,0,.18,3.39Zm-1.3-8c-2.73,0-5.94.32-5.94,3.52a2.65,2.65,0,0,0,2.82,2.94c3.12,0,4.21-2.56,4.21-5.5v-1Z" transform="translate(-29.74 -22.13)"/><path class="cls-3" d="M101.75,127.19V104.12h2.15v23.07Z" transform="translate(-29.74 -22.13)"/><path class="cls-3" d="M116.5,127.19V105.85h4.83c3.21,0,6.68,1,6.68,5.24a5.21,5.21,0,0,1-4.45,5.28,4,4,0,0,1,2.68,2.72l3.21,8.1h-2.62l-2.71-7c-.85-2.21-1.5-2.82-3.82-2.82h-1.47v9.86Zm2.3-11.9h2c2.26,0,4.8-.93,4.8-4s-2.42-3.43-4.92-3.43H118.8Z" transform="translate(-29.74 -22.13)"/><path class="cls-3" d="M133.58,119.51c0,3.07,1.5,6.14,5.18,6.14a7.27,7.27,0,0,0,4-1.21l.09,2.08a9,9,0,0,1-4.12,1c-5.07,0-7.42-3.61-7.42-8.38,0-4.07,2.15-8.23,6.53-8.23,4.57,0,5.86,4,5.86,8.2v.38Zm8.06-1.73c-.15-2.17-.88-5-3.74-5s-4.24,2.72-4.32,5Z" transform="translate(-29.74 -22.13)"/><path class="cls-3" d="M146.09,124.63a6.87,6.87,0,0,0,3.59,1,2.48,2.48,0,0,0,2.79-2.65c0-3.88-6.32-2.76-6.32-7.62,0-3.2,2.44-4.42,4.74-4.42a8.67,8.67,0,0,1,3.32.68l-.29,2a6.59,6.59,0,0,0-3-.8,2.32,2.32,0,0,0-2.62,2.4c0,3.2,6.38,2.21,6.38,7.55a4.69,4.69,0,0,1-5,4.77,9.21,9.21,0,0,1-3.89-.73Z" transform="translate(-29.74 -22.13)"/><path class="cls-3" d="M159.48,119.51c0,3.07,1.5,6.14,5.18,6.14a7.24,7.24,0,0,0,4-1.21l.09,2.08a8.94,8.94,0,0,1-4.12,1c-5.06,0-7.42-3.61-7.42-8.38,0-4.07,2.15-8.23,6.54-8.23,4.56,0,5.86,4,5.86,8.2v.38Zm8.07-1.73c-.15-2.17-.89-5-3.74-5s-4.24,2.72-4.33,5Z" transform="translate(-29.74 -22.13)"/><path class="cls-3" d="M180.94,127.19l-.09-2.56a4.72,4.72,0,0,1-4.56,2.91c-2.62,0-4.8-1.5-4.8-4.73,0-4.1,3.3-5.32,7.6-5.32h1.65v-.76c0-2.44-.86-3.94-3.3-3.94a7.06,7.06,0,0,0-4.15,1.34l-.18-2.08a10.33,10.33,0,0,1,4.42-1.12c3.68,0,5.33,2,5.33,6v6.91a25.16,25.16,0,0,0,.17,3.39Zm-1.29-8c-2.74,0-6,.32-6,3.52a2.66,2.66,0,0,0,2.83,2.94c3.12,0,4.21-2.56,4.21-5.5v-1Z" transform="translate(-29.74 -22.13)"/><path class="cls-3" d="M187.15,127.19V115c0-1.25,0-2.5-.14-3.75h2l.12,3c.56-1.63,2.09-3.33,3.88-3.33a4,4,0,0,1,1.24.13l-.12,2.34a3.69,3.69,0,0,0-1.18-.19c-3,0-3.62,3.58-3.62,6.08v7.9Z" transform="translate(-29.74 -22.13)"/><path class="cls-3" d="M206.38,126.93a10.4,10.4,0,0,1-3.8.61c-4.5,0-7-3.74-7-8.38s2.74-8.23,7.22-8.23a10.62,10.62,0,0,1,3.59.68l-.18,2.08a6.83,6.83,0,0,0-3.06-.8c-3.53,0-5.27,2.68-5.27,6.27,0,3.36,1.74,6.43,5.12,6.43a7.54,7.54,0,0,0,3.24-.74Z" transform="translate(-29.74 -22.13)"/><path class="cls-3" d="M209.5,127.19V104.12h2.15v9.82a4.7,4.7,0,0,1,4.53-3c3.59,0,4.89,2.69,4.89,6.37v9.89H219v-9.47c0-2.53-.47-4.8-3.3-4.8-3,0-4,2.85-4,5.66v8.61Z" transform="translate(-29.74 -22.13)"/><path class="cls-4" d="M238.27,104.13v28.1h28.1v-28.1Zm25.29,25.29H241.08V106.94h22.48Z" transform="translate(-29.74 -22.13)"/><path class="cls-5" d="M288.33,73.41c-1.4-2.48-18.89,4.67-22.35,8.38-3.52,2.28,4.58,18.62,8.39,24.74,1.39,2.48,20.12-6.93,22.34-8.38C300.3,96.24,291.3,77.54,288.33,73.41Zm5.3,23.1c-1.77,1.15-16.76,8.68-17.87,6.7-3.05-4.89-9.52-18-6.71-19.79,2.77-3,16.76-8.69,17.88-6.7C289.3,80,296.5,95,293.63,96.51Z" transform="translate(-29.74 -22.13)"/><path class="cls-6" d="M317.25,51.11c-3.19-4.88-17.86-2.24-22.65,2.19-4.7,3.08-1.84,16.2,2.92,23,3.19,4.87,18.2,2.24,22.65-2.2C324.87,71.08,322.4,57.73,317.25,51.11Zm.37,21c-3.55,3.54-15.57,5.65-18.12,1.75-3.8-5.47-6.09-16-2.33-18.43,3.83-3.55,15.57-5.66,18.12-1.76C319.4,58.93,321.38,69.61,317.62,72.07Z" transform="translate(-29.74 -22.13)"/><path class="cls-7" d="M345.7,28.93a15.54,15.54,0,1,0-4.11,21.59A15.53,15.53,0,0,0,345.7,28.93Zm-5.86,19a12.43,12.43,0,1,1,3.29-17.27A12.44,12.44,0,0,1,339.84,48Z" transform="translate(-29.74 -22.13)"/></svg>